<svg width="35" height="32" viewBox="0 0 35 32" fill="none" xmlns="http://www.w3.org/2000/svg">
    <path d="M33.6225 16C33.6225 24.5345 26.2994 31.5 17.2064 31.5C8.11343 31.5 0.790283 24.5345 0.790283 16C0.790283 7.46545 8.11343 0.5 17.2064 0.5C26.2994 0.5 33.6225 7.46545 33.6225 16Z"
          fill="#A7B3CB" stroke="#DDE7FB"/>
    <path d="M17.2041 4L17.0378 4.54689V20.4162L17.2041 20.5769L24.8141 16.2226L17.2041 4Z" fill="#C4C4CB"/>
    <path d="M17.2042 4L9.59424 16.2226L17.2042 20.5769V12.8744V4Z" fill="#F7F7F7"/>
    <path d="M17.204 21.9717L17.1104 22.0822V27.7352L17.204 28L24.8186 17.6196L17.204 21.9717Z" fill="#C4C4CB"/>
    <path d="M17.204 28.0001V21.9717L9.59399 17.6196L17.204 28.0001Z" fill="#F7F7F7"/>
    <path d="M17.2041 20.5769L24.814 16.2227L17.2041 12.8745V20.5769Z" fill="#A0A0AF"/>
    <path d="M9.59399 16.2227L17.2039 20.577V12.8745L9.59399 16.2227Z" fill="#C4C4CB"/>
</svg>
